<svg xmlns="http://www.w3.org/2000/svg" width="137" height="150" viewBox="0 0 137 150">
  <g id="Group_386" data-name="Group 386" transform="translate(-1196 -1996)">
    <g id="Ellipse_49" data-name="Ellipse 49" transform="translate(1196 2009)" fill="none" stroke="#fff" stroke-width="3">
      <circle cx="68.5" cy="68.5" r="68.5" stroke="none"/>
      <circle cx="68.5" cy="68.5" r="67" fill="none"/>
    </g>
    <g id="Group_382" data-name="Group 382" transform="translate(1211.872 1996.358)">
      <circle id="Ellipse_47" data-name="Ellipse 47" cx="24" cy="24" r="24" transform="translate(0.128 4.642)" fill="#db304c"/>
      <text id="_3" data-name="3" transform="translate(24.128 40.642)" fill="#fafbfb" font-size="38" font-family="SegoeUISymbol, Segoe UI Symbol"><tspan x="-10.242" y="0">3</tspan></text>
    </g>
    <g id="Group_383" data-name="Group 383" transform="translate(1221.598 2058.484)">
      <path id="Path_533" data-name="Path 533" d="M110.314,63.46a1.811,1.811,0,0,1,1.271.65c1.784,1.793,3.594,3.558,5.351,5.375.488.5.738.585,1.284.029,3.646-3.7,7.337-7.366,11.014-11.039a3.668,3.668,0,0,1,.625-.56,1.338,1.338,0,0,1,1.844,1.842,3.483,3.483,0,0,1-.553.63q-6.106,6.113-12.217,12.22c-1.068,1.068-1.615,1.066-2.681,0q-3.34-3.337-6.678-6.673a1.407,1.407,0,0,1-.418-1.671A1.36,1.36,0,0,1,110.314,63.46Z" transform="translate(-84.512 -44.711)" fill="#fff"/>
      <path id="Path_534" data-name="Path 534" d="M165.311,169.411q-4.926,0-9.853,0a1.4,1.4,0,0,1-1.444-.8,1.263,1.263,0,0,1,.207-1.412,1.685,1.685,0,0,1,1.455-.495q3.957,0,7.917,0,5.6,0,11.2,0a4.345,4.345,0,0,1,.839.043,1.327,1.327,0,0,1-.13,2.64c-.5.034-1.01.016-1.516.016Z" transform="translate(-119.278 -129.215)" fill="#fff"/>
      <path id="Path_535" data-name="Path 535" d="M22.737,143.753q-4.133,0-8.263,0c-1.066,0-1.678-.5-1.673-1.343,0-.825.645-1.352,1.689-1.352q8.347-.007,16.7-.007a1.5,1.5,0,0,1,1.48.767,1.259,1.259,0,0,1-.094,1.356,1.489,1.489,0,0,1-1.4.587C28.359,143.747,25.548,143.753,22.737,143.753Z" transform="translate(-9.926 -109.326)" fill="#fff"/>
      <path id="Path_536" data-name="Path 536" d="M86.267,29.068a6.9,6.9,0,0,0-5.495-5.789c-.488-.121-.526-.439-.612-.776C79.531,20,78.917,17.5,78.281,15c-.115-.45-.225-.819.355-1.062a.912.912,0,0,0,.495-.834,11.8,11.8,0,0,0-.083-2.775,5.714,5.714,0,0,0-5.863-4.563c-3.036-.011-6.073-.018-9.109.011-.6.007-.879-.09-.8-.767a15.475,15.475,0,0,0,.013-1.77C63.281,1.046,62.231,0,60.022,0H9.082C6.839,0,5.769,1.064,5.769,3.295q0,11.724,0,23.445a3.352,3.352,0,0,0,.045.839,1.279,1.279,0,0,0,1.4,1.075A1.247,1.247,0,0,0,8.459,27.41c.025-.279.013-.562.013-.843,0-7.647.009-15.294-.013-22.939,0-.69.09-.951.893-.949q25.218.044,50.434,0c.681,0,.816.2.814.837-.022,7.7-.013,15.407-.013,23.108a5.816,5.816,0,0,0,.02.841,1.357,1.357,0,0,0,1.4,1.2,1.322,1.322,0,0,0,1.275-1.311,7.42,7.42,0,0,0,0-1.1c-.031-.382.133-.47.486-.47,5.285.011,10.571-.007,15.854.025,1.707.009,3.626,1.635,3.7,3.03-1.293,0-2.584-.013-3.873,0a1.347,1.347,0,0,0-1.527,1.491c-.016.956-.02,1.912,0,2.868a4.16,4.16,0,0,0,3.252,4,8.492,8.492,0,0,0,1.93.1c.436-.009.585.112.578.565-.025,1.631-.029,3.261,0,4.892.009.488-.2.549-.6.538-.758-.022-1.52-.038-2.276,0-.5.027-.706-.155-.918-.61a8.564,8.564,0,0,0-15.724.022c-.128.27-.153.639-.592.571-.506-.079-.279-.488-.279-.742q-.024-4.595-.007-9.192a1.407,1.407,0,0,0-.843-1.5c-.967-.4-1.856.277-1.86,1.466-.014,3.093-.018,6.185.009,9.278,0,.547-.128.708-.693.708q-13.367-.027-26.735,0a.8.8,0,0,1-.864-.574,8.2,8.2,0,0,0-7.881-5.193,8.2,8.2,0,0,0-7.856,5.227.789.789,0,0,1-.882.535c-1.6-.02-3.205.011-4.806-.016-.778-.013-1.795.351-2.267-.16s-.074-1.5-.146-2.281c-.049-.535.157-.666.666-.657,1.658.029,3.317.02,4.975.007,1-.007,1.595-.524,1.588-1.343s-.614-1.345-1.6-1.347q-6.241-.017-12.483,0c-.992,0-1.595.547-1.592,1.358s.6,1.322,1.6,1.334c1.208.011,2.418.016,3.626,0,.4-.007.551.106.535.522-.029.729-.013,1.462-.007,2.193a2.844,2.844,0,0,0,3.106,3.084c2.024.009,4.048.025,6.073-.011.659-.011.915.072.99.861a8.53,8.53,0,0,0,17-.07c.061-.688.315-.792.922-.789q14.379.027,28.76,0c.589,0,.841.076.913.778a8.541,8.541,0,0,0,17.037-.076c.061-.607.254-.726.805-.7,1.039.043,2.08-.018,3.12.022a1.82,1.82,0,0,0,1.885-.965V29.185C86.339,29.14,86.274,29.11,86.267,29.068ZM63.277,10.794a12.533,12.533,0,0,0,0-1.768c-.027-.461.157-.565.585-.562,3.2.016,6.406-.011,9.608.018A2.988,2.988,0,0,1,76.4,10.814c.106.5.043.756-.594.742-1.966-.043-3.934-.016-5.9-.016s-3.934-.025-5.9.016C63.4,11.565,63.232,11.367,63.277,10.794ZM76.832,23.1c-2.161-.022-4.321-.009-6.482-.009-2.105,0-4.21-.018-6.313.013-.56.009-.774-.1-.762-.72q.057-3.7,0-7.409c-.009-.614.2-.733.76-.729q5.3.037,10.607,0c.5,0,.722.112.848.645.6,2.533,1.239,5.056,1.9,7.573C77.545,23.058,77.327,23.105,76.832,23.1Zm5.281,11.5a1.482,1.482,0,0,1-1.487-1.5c-.1-1.547-.1-1.547,1.412-1.547h.083c1.554,0,1.554,0,1.554,1.577S83.676,34.7,82.113,34.6ZM24.428,51.937a5.862,5.862,0,1,1,5.879-5.827A5.905,5.905,0,0,1,24.428,51.937Zm47.607,0A5.861,5.861,0,1,1,77.914,46.1,5.916,5.916,0,0,1,72.035,51.937Z" transform="translate(-0.02)" fill="#fff"/>
      <circle id="Ellipse_50" data-name="Ellipse 50" cx="2.074" cy="2.074" r="2.074" transform="translate(22.386 44.002)" fill="#fff"/>
      <circle id="Ellipse_51" data-name="Ellipse 51" cx="2.074" cy="2.074" r="2.074" transform="translate(69.937 44.002)" fill="#fff"/>
    </g>
  </g>
</svg>
