<svg xmlns="http://www.w3.org/2000/svg" width="137" height="152" viewBox="0 0 137 152">
  <g id="Group_387" data-name="Group 387" transform="translate(-589 -2182)">
    <g id="Ellipse_48" data-name="Ellipse 48" transform="translate(589 2197)" fill="none" stroke="#fff" stroke-width="3">
      <circle cx="68.5" cy="68.5" r="68.5" stroke="none"/>
      <circle cx="68.5" cy="68.5" r="67" fill="none"/>
    </g>
    <g id="Group_381" data-name="Group 381" transform="translate(603.417 2181.54)">
      <ellipse id="Ellipse_47" data-name="Ellipse 47" cx="24.5" cy="24" rx="24.5" ry="24" transform="translate(-0.417 4.46)" fill="#db304c"/>
      <text id="_2" data-name="2" transform="translate(23.583 41.46)" fill="#fafbfb" font-size="38" font-family="SegoeUISymbol, Segoe UI Symbol"><tspan x="-10.242" y="0">2</tspan></text>
    </g>
    <path id="Path_530" data-name="Path 530" d="M64.849,32.132a8.526,8.526,0,0,0-1.068.009c-.537.068-.649-.155-.688-.66a27.817,27.817,0,0,0-2.523-9.623.988.988,0,0,0-1.364-.579,1.022,1.022,0,0,0-.472,1.366c.093.25.223.485.326.729A28.316,28.316,0,0,1,61.1,31.354c.073.651-.089.8-.743.793q-22.227-.032-44.452-.016a5.042,5.042,0,0,0-.734.018.96.96,0,0,0-.872,1.071.928.928,0,0,0,.97.9c.223.012.446.005.669.005H64.872c1.392,0,1.581.189,1.581,1.571,0,1.3-.194,1.49-1.506,1.49H3.516c-.178,0-.357.007-.535,0a.9.9,0,0,1-.972-.95c-.014-.267,0-.535,0-.8,0-1.02.285-1.3,1.309-1.307,2.362,0,4.724,0,7.086,0,.768,0,1.237-.4,1.219-1.013-.016-.588-.472-.97-1.2-.98-.8-.011-1.606-.037-2.4.009-.54.032-.8-.091-.656-.674a3.654,3.654,0,0,0,.034-.4,26.013,26.013,0,0,1,5.963-14.18C19.885,9.2,28.237,5.917,38.215,7.295A26.1,26.1,0,0,1,56.329,18.458c.494.685,1.048.856,1.569.485s.553-.959.062-1.638A28.764,28.764,0,0,0,39.438,5.46c-1-.193-1-.182-.656-1.1a5.593,5.593,0,0,0,.2-.635A2.431,2.431,0,0,0,37.254.479,7.5,7.5,0,0,0,35.3.064a9.228,9.228,0,0,0-4.209.467A2.308,2.308,0,0,0,29.4,3.319a7.218,7.218,0,0,0,.661,1.936c-1.043.189-2.027.358-2.995.608a22.241,22.241,0,0,0-2.861.886c-10.753,4.38-17.061,12.269-18.763,23.8-.077.517.152,1.237-.262,1.5-.382.246-1.034.08-1.569.08C1.515,32.133.781,32.613,0,34.5v2.407a3.33,3.33,0,0,0,3.664,2.305c2.76-.084,5.525-.021,8.288-.021h1.722a12.962,12.962,0,0,0-2.048,1.884c-1.307,1.635-2.658,3.236-3.984,4.854-.193.235-.321.383-.7.223a2.679,2.679,0,0,0-3.45,1.032c-.61.875-1.212,1.76-1.793,2.654a2.705,2.705,0,0,0,.734,3.876q6.359,4.356,12.752,8.661a2.7,2.7,0,0,0,3.877-.747c.631-.888,1.241-1.793,1.831-2.708A2.678,2.678,0,0,0,20.45,55.3c-.314-.289-.251-.419.005-.656a6.548,6.548,0,0,1,2.681-1.563,16.411,16.411,0,0,1,5.7-.321c1.686.128,3.344.506,5.038.6,3.086.166,5.983-.715,8.9-1.506a19.779,19.779,0,0,0,8.53-4.614c1.514-1.414,3.057-2.8,4.658-4.113,1.264-1.038,1.981-2.211,1.492-3.931h.715q3.543,0,7.085,0a3.98,3.98,0,0,0,.993-.084,3.225,3.225,0,0,0,2.2-2.2V34.506C67.68,32.618,66.94,32.132,64.849,32.132Zm-23.66,7.1H50.5c-2.731,2.61-6.25,3.541-9.917,4.4A3.536,3.536,0,0,0,41.188,39.232ZM30.351,39.2a2.2,2.2,0,0,1-2.109,0ZM19.166,57.913c-.551.836-1.118,1.66-1.681,2.487a.8.8,0,0,1-.749.456.973.973,0,0,1-.608-.253q-6.18-4.2-12.36-8.395c-.674-.458-.733-.77-.291-1.433q.8-1.193,1.61-2.375c.414-.6.731-.665,1.342-.251q6.241,4.228,12.47,8.47A.794.794,0,0,1,19.166,57.913Zm36.1-16.865c-.455.428-.932.827-1.4,1.241-1.351,1.194-2.722,2.369-4.049,3.59a16.741,16.741,0,0,1-7.12,3.9,51.228,51.228,0,0,1-5.817,1.442,23.994,23.994,0,0,1-6.776-.326,20.651,20.651,0,0,0-6.584.041A8.341,8.341,0,0,0,18.806,53.5c-.276.3-.449.349-.8.107q-4.26-2.931-8.55-5.817c-.374-.251-.46-.387-.13-.774C10.682,45.422,11.9,43.7,13.349,42.2c2.232-2.323,4.9-3.573,8.229-2.651,2.269.629,4.55,1.212,6.819,1.84a2.708,2.708,0,0,0,1.312.048q3.915-.821,7.832-1.64a4.162,4.162,0,0,1,.658-.1,1.336,1.336,0,0,1,1.426.963,1.308,1.308,0,0,1-.642,1.6c-.906.517-1.833,1-2.761,1.476-.521.267-.911.619-.756,1.25.162.66.679.8,1.3.772s1.246-.005,1.87-.005c2.6.225,4.906-.95,7.338-1.519a8.174,8.174,0,0,0,2.815-1.309c1.535-1.064,3.107-2.072,4.667-3.1a6.689,6.689,0,0,1,.686-.408c.439-.217.886-.36,1.259.121A1.153,1.153,0,0,1,55.268,41.049Z" transform="translate(623.647 2247.171)" fill="#fafafa"/>
  </g>
</svg>
