<svg xmlns="http://www.w3.org/2000/svg" width="137" height="149" viewBox="0 0 137 149">
  <g id="Group_385" data-name="Group 385" transform="translate(14 -1998)">
    <g id="Ellipse_52" data-name="Ellipse 52" transform="translate(-14 2010)" fill="none" stroke="#fff" stroke-width="3">
      <circle cx="68.5" cy="68.5" r="68.5" stroke="none"/>
      <circle cx="68.5" cy="68.5" r="67" fill="none"/>
    </g>
    <g id="Group_379" data-name="Group 379" transform="translate(19.083 2055.232)">
      <path id="Path_528" data-name="Path 528" d="M69.739,18.783C66.8,13.911,65.287,8.8,66.016,3.1a.84.84,0,0,0,0-.136C66,.849,65.209.006,63.121.006Q35.376-.011,7.627.006c-2.1,0-3.09.862-2.865,2.942A23.587,23.587,0,0,1,.9,18.867c-.173.265-.269.582-.423.865a3.915,3.915,0,0,0-.464,1.985C.037,23.143-.014,24.571.034,26a6.727,6.727,0,0,0,3.682,6.047A1.664,1.664,0,0,1,4.74,33.822q-.033,15.6-.015,31.2c0,2.626.7,3.318,3.373,3.318H62.764c2.541,0,3.255-.725,3.255-3.3q0-15.6-.015-31.2a1.608,1.608,0,0,1,1.013-1.786,5.572,5.572,0,0,0,3.218-3.767C70.947,25.1,71.528,21.747,69.739,18.783ZM9.678,4.9c.619-.53,2.018-.173,3.071-.177q11.384-.011,22.772,0c8.142,0,16.284.015,24.426-.022,1.013,0,1.421.162,1.4,1.318-.074,3.421-.015,3.421-3.421,3.421q-23.531,0-47.062.026c-1.112,0-1.609-.217-1.444-1.4C9.568,6.984,8.942,5.533,9.678,4.9ZM8.33,14.54c.239-.493.685-.383,1.083-.383q25.956-.006,51.911,0c.4,0,.843-.11,1.083.379.678,1.385,1.359,2.769,2.1,4.272H6.239C6.971,17.31,7.656,15.929,8.33,14.54ZM56.633,24.9c-.144,2.176-.832,3.344-2.368,3.373-1.561.033-2.375-1.094-2.375-3.292,0-1.41,0-1.41,2.567-1.41C55.138,23.931,56.78,22.66,56.633,24.9ZM43.947,23.566c.313.048.674-.085.95.026.8.313,2.36-.95,2.3,1.178-.066,2.309-.781,3.476-2.364,3.506-1.418.026-2.331-1.027-2.375-2.747,0-.136,0-.273,0-.6C42.106,23.787,42.7,23.382,43.947,23.566Zm-6.179,1.322c-.133,2.217-.788,3.34-2.338,3.384-1.595.044-2.338-1.138-2.453-3.4-.118-2.416,1.734-.714,2.364-1.418C36.251,23.938,37.9,22.645,37.768,24.888Zm-9.449.1c-.173,2.18-.854,3.318-2.419,3.285s-2.243-1.164-2.364-3.373c-.129-2.36,1.639-.88,2.4-1.392C26.842,23.886,28.5,22.69,28.319,24.988Zm-9.431.026c-.18,2.125-.788,3.207-2.309,3.255-1.554.048-2.324-1.142-2.475-3.259-.169-2.383,1.572-1.1,2.449-1.48C17.466,23.835,19.079,22.745,18.888,25.013ZM7.122,28.272c-1.554.026-2.4-1.138-2.4-3.3,0-1.4,0-1.4,2.563-1.4.814.225,2.379-.762,2.18,1.466C9.284,27.123,8.636,28.246,7.122,28.272ZM28.282,53.151c0,3.171-.026,6.341.018,9.508.011.792-.228,1-1,.987q-3.717-.072-7.442,0c-.751.011-1.031-.158-1.024-.976q.05-9.644,0-19.3c0-.792.236-1.013,1.009-1,2.434.044,4.872.055,7.3,0,.884-.022,1.175.2,1.156,1.127C28.245,46.721,28.282,49.936,28.282,53.151ZM61.31,48.01c0,4.831-.022,9.663.018,14.49.007.88-.2,1.156-1.123,1.153q-13.041-.055-26.086,0c-.939,0-1.138-.284-1.134-1.16.033-7.177.022-14.354.015-21.531,0-2.567-.711-3.274-3.27-3.274q-6.142-.006-12.285,0c-2.567,0-3.307.725-3.311,3.259,0,7.085-.041,14.17.037,21.255.015,1.281-.376,1.484-1.525,1.455-3.218-.077-3.222-.026-3.222-3.182,0-8.926.048-17.853-.044-26.775-.015-1.595,1.3-1.521,2-2.217.619-.622.972.158,1.377.394a6.8,6.8,0,0,0,7.549-.063,1.316,1.316,0,0,1,1.76-.07,6.6,6.6,0,0,0,7.862-.07,1.051,1.051,0,0,1,1.429-.015,6.64,6.64,0,0,0,7.98.022,1.15,1.15,0,0,1,1.539.044,6.652,6.652,0,0,0,7.869-.029,1.141,1.141,0,0,1,1.536.007,6.763,6.763,0,0,0,7.884.041c.342-.214.692-.84,1.145-.287.611.744,2.055.5,2.025,2.055C61.251,38.347,61.31,43.179,61.31,48.01Zm4.747-22.975c-.184,2.055-.858,3.207-2.36,3.237-1.558.033-2.383-1.108-2.386-3.292,0-1.407,0-1.407,2.556-1.407C64.668,23.809,66.259,22.785,66.056,25.035Z" transform="translate(-0.013 0.003)" fill="#fff"/>
      <path id="Path_529" data-name="Path 529" d="M120.586,122.53h-16.7a.8.8,0,0,1-.8-.8V109.653a.8.8,0,0,1,.8-.8h16.7a.8.8,0,0,1,.8.8v12.075A.8.8,0,0,1,120.586,122.53Z" transform="translate(-65.126 -68.766)" fill="none" stroke="#fff" stroke-miterlimit="10" stroke-width="2"/>
    </g>
    <g id="Group_380" data-name="Group 380" transform="translate(-3.481 1997.915)">
      <circle id="Ellipse_47" data-name="Ellipse 47" cx="24" cy="24" r="24" transform="translate(0.481 3.085)" fill="#db304c"/>
      <text id="_1" data-name="1" transform="translate(22.481 41.085)" fill="#fafbfb" font-size="38" font-family="SegoeUISymbol, Segoe UI Symbol"><tspan x="-10.242" y="0">1</tspan></text>
    </g>
  </g>
</svg>
